<svg width="22" height="22" viewBox="0 0 22 22" fill="none" xmlns="http://www.w3.org/2000/svg">
<g clip-path="url(#clip0_5_10882)">
<path d="M8.699 21.202C7.49106 21.202 6.50828 20.2193 6.50828 19.0113C6.50828 17.8034 7.49106 16.821 8.699 16.821C9.90693 16.821 10.8897 17.8034 10.8897 19.0113C10.8897 20.2193 9.90693 21.202 8.699 21.202ZM8.699 18.196C8.48277 18.1961 8.27545 18.2821 8.12252 18.4349C7.96959 18.5878 7.88355 18.7951 7.88328 19.0113C7.88328 19.4613 8.24903 19.827 8.699 19.827C9.14897 19.827 9.51472 19.4613 9.51472 19.0113C9.51444 18.7951 9.4284 18.5878 9.27547 18.4349C9.12255 18.2821 8.91522 18.1961 8.699 18.196ZM16.3144 21.202C15.1065 21.202 14.1241 20.2193 14.1241 19.0113C14.1241 17.8034 15.1065 16.821 16.3144 16.821C17.5224 16.821 18.5052 17.8034 18.5052 19.0113C18.5052 20.2193 17.522 21.202 16.3144 21.202ZM16.3144 18.196C16.0983 18.1962 15.891 18.2822 15.7382 18.4351C15.5853 18.5879 15.4993 18.7952 15.4991 19.0113C15.4992 19.2276 15.5852 19.4349 15.7381 19.5878C15.8909 19.7407 16.0982 19.8268 16.3144 19.827C16.5307 19.8269 16.7381 19.7409 16.891 19.5879C17.044 19.435 17.13 19.2276 17.1302 19.0113C17.1299 18.7951 17.0438 18.5878 16.8909 18.4349C16.738 18.2821 16.5307 18.1961 16.3144 18.196ZM17.9184 15.1228H7.11809C6.61051 15.1248 6.11745 14.9535 5.72051 14.6371C5.32357 14.3208 5.04655 13.8783 4.93528 13.3831L2.69368 3.59414C2.67883 3.52995 2.64957 3.46997 2.60812 3.41876C2.56667 3.36754 2.51412 3.32642 2.45444 3.29851L0.595091 2.43673C0.391971 2.33866 0.235551 2.16466 0.159583 1.95228C0.0836154 1.7399 0.0941907 1.50617 0.189027 1.30152C0.283863 1.09686 0.455357 0.937701 0.666504 0.858371C0.877651 0.779042 1.11152 0.785905 1.31765 0.877481L3.177 1.73926C3.47426 1.87805 3.73606 2.08262 3.9426 2.33752C4.14913 2.59241 4.29498 2.89094 4.36912 3.21051L6.61072 13.0002C6.63657 13.1153 6.70096 13.2181 6.79323 13.2916C6.8855 13.3651 7.00011 13.4049 7.11809 13.4044H17.9184C18.036 13.4048 18.1504 13.3651 18.2425 13.292C18.3347 13.2189 18.3993 13.1166 18.4257 13.0019L20.1686 5.50367C20.187 5.42743 20.1877 5.34798 20.1705 5.27144C20.1533 5.19491 20.1188 5.12335 20.0696 5.06229C20.0212 5.00048 19.9593 4.9506 19.8886 4.9165C19.8179 4.88241 19.7403 4.86502 19.6619 4.86567H6.94312C6.7152 4.86567 6.49662 4.77513 6.33545 4.61396C6.17429 4.4528 6.08375 4.23421 6.08375 4.00629C6.08375 3.77837 6.17429 3.55979 6.33545 3.39862C6.49662 3.23746 6.7152 3.14692 6.94312 3.14692H19.6619C20.349 3.14692 20.9877 3.45526 21.4153 3.99323C21.843 4.5312 21.9983 5.22351 21.843 5.89279L20.0998 13.3914C19.9866 13.8846 19.7089 14.3247 19.3125 14.6394C18.9161 14.954 18.4245 15.1245 17.9184 15.1228Z" fill="white"/>
</g>
<defs>
<clipPath id="clip0_5_10882">
<rect width="22" height="22" fill="white"/>
</clipPath>
</defs>
</svg>
