<svg width="29" height="29" viewBox="0 0 29 29" fill="none" xmlns="http://www.w3.org/2000/svg">
<path d="M14.5 28C21.9558 28 28 21.9558 28 14.5C28 7.04416 21.9558 1 14.5 1C7.04416 1 1 7.04416 1 14.5C1 21.9558 7.04416 28 14.5 28Z" stroke="white" stroke-opacity="0.7" stroke-miterlimit="10"/>
<path d="M14.5 28C18.2279 28 21.25 21.9558 21.25 14.5C21.25 7.04416 18.2279 1 14.5 1C10.7721 1 7.75 7.04416 7.75 14.5C7.75 21.9558 10.7721 28 14.5 28Z" stroke="white" stroke-opacity="0.7" stroke-miterlimit="10"/>
<path d="M14.5 28V1" stroke="white" stroke-opacity="0.7" stroke-miterlimit="10"/>
<path d="M14.5 28C21.9558 28 28 21.9558 28 14.5C28 7.04416 21.9558 1 14.5 1C7.04416 1 1 7.04416 1 14.5C1 21.9558 7.04416 28 14.5 28Z" stroke="white" stroke-opacity="0.7" stroke-miterlimit="10"/>
<path d="M14.5 21.25C21.9558 21.25 28 18.2279 28 14.5C28 10.7721 21.9558 7.75 14.5 7.75C7.04416 7.75 1 10.7721 1 14.5C1 18.2279 7.04416 21.25 14.5 21.25Z" stroke="white" stroke-opacity="0.7" stroke-miterlimit="10"/>
<path d="M1 14.5H28" stroke="white" stroke-opacity="0.7" stroke-miterlimit="10"/>
</svg>
